<svg id="Capa_1" enable-background="new 0 0 512.356 512.356" height="512" viewBox="0 0 512.356 512.356" width="512" xmlns="http://www.w3.org/2000/svg"><g><g><circle cx="266.43" cy="249.101" fill="#f3b5aa" r="66.576"/><g><g><path d="m235.446 511.398c-4.143 0-7.5-3.358-7.5-7.5v-22.358c0-14.939 3.822-29.745 11.055-42.817 6.006-10.855 9.181-23.15 9.181-35.556v-123.232c0-4.142 3.357-7.5 7.5-7.5s7.5 3.358 7.5 7.5v123.232c0 14.938-3.822 29.744-11.055 42.816-6.006 10.855-9.181 23.15-9.181 35.556v22.359c0 4.143-3.357 7.5-7.5 7.5z" fill="#efedee"/></g></g><path d="m339.305 402.336c0 4.503-4.926 7.273-8.773 4.934l-11.811-7.181c-1.843-1.12-4.156-1.12-5.999 0l-11.811 7.181c-3.848 2.339-8.773-.43-8.773-4.934v-118.641h47.168v118.641z" fill="#ea9a98"/><path d="m219.226 402.336c0 4.503-4.926 7.273-8.773 4.934l-11.811-7.181c-1.843-1.12-4.156-1.12-5.999 0l-11.811 7.181c-3.848 2.339-8.773-.43-8.773-4.934v-114.072h47.168v114.072z" fill="#ea9a98"/><g><path d="m136.578 73.864-15.597-3.495c-49.833-11.166-99.347 19.937-110.923 69.675l-.137.589c-11.321 48.648 17.803 97.552 65.969 110.772l158.02 43.373 74.657-147.543c22.661-44.783 5.702-99.469-38.322-123.572-44.794-24.525-100.983-8.346-125.876 36.244z" fill="#f5c3b9"/><g><path d="m122.799 221.285c-48.166-13.221-77.29-62.124-65.969-110.772l.137-.589c3.414-14.668 10.143-27.722 19.191-38.543-31.886 8.735-58.089 34.238-66.1 68.663l-.137.589c-11.321 48.648 17.803 97.552 65.969 110.772l158.02 43.373 19.103-37.753z" fill="#f3b5aa"/></g><path d="m308.567 147.236c22.661-44.783 5.702-99.469-38.322-123.572-2.316-1.268-4.649-2.421-7.02-3.474-20.435 11.35-36.369 29.167-45.392 51.03-10.322 25.016-10.51 52.645-.528 77.798l39.718 100.083z" fill="#f3b5aa"/><path d="m395.99 89.902 14.261-1.861c45.564-5.947 87.401 25.957 93.722 71.471l.075.539c6.183 44.515-23.899 85.965-68.137 93.889l-145.134 25.995-54.882-138.294c-16.658-41.976 2.993-89.598 44.406-107.612 42.137-18.328 91.171.747 109.845 42.732z" fill="#ffdbd8"/><g><path d="m287.31 151.968c-16.658-41.976 2.993-89.598 44.406-107.612 7.62-3.314 15.475-5.389 23.326-6.342-22.114-12.546-49.654-14.897-74.742-3.984-41.413 18.013-61.064 65.635-44.406 107.612l54.882 138.294 44.177-7.913z" fill="#f5c3b9"/></g><path d="m232.408 326.234-45.262 25.77c-29.893 17.02-64.371-13.505-51.1-45.24l1.769-4.23c1.47-3.515 1.47-7.473 0-10.988l-1.769-4.23c-13.271-31.736 21.206-62.26 51.1-45.24l45.262 25.77 23.274 12.09v34.123z" fill="#e5827f"/><path d="m163.516 306.764 1.769-4.23c1.47-3.515 1.47-7.473 0-10.988l-1.769-4.23c-8.493-20.309 2.569-40.12 19.469-47.295-28.812-12.145-59.599 17.023-46.939 47.295l1.769 4.23c1.47 3.515 1.47 7.473 0 10.988l-1.769 4.23c-12.659 30.272 18.127 59.44 46.939 47.295-16.901-7.175-27.962-26.987-19.469-47.295z" fill="#de6a66"/><path d="m278.955 326.234 45.262 25.77c29.893 17.02 64.371-13.505 51.1-45.24l-1.769-4.23c-1.47-3.515-1.47-7.473 0-10.988l1.769-4.23c13.271-31.736-21.206-62.26-51.1-45.24l-45.262 25.77-33.391 20.03v22.677z" fill="#e5827f"/><path d="m259.143 338.366h-6.923c-12.286 0-22.246-9.96-22.246-22.246v-38.162c0-12.286 9.96-22.246 22.246-22.246h6.923c12.286 0 22.246 9.96 22.246 22.246v38.162c0 12.287-9.96 22.246-22.246 22.246z" fill="#de6a66"/></g></g><g><path d="m511.476 159.014-.074-.535c-1.607-11.572-5.359-22.575-11.151-32.704-2.057-3.596-6.64-4.843-10.234-2.788-3.596 2.057-4.843 6.638-2.787 10.234 4.839 8.46 7.973 17.653 9.316 27.325l.074.535c5.651 40.688-21.596 78.232-62.03 85.475l-52.513 9.406c-2.49-5.635-6.234-10.813-11.151-15.166-14.174-12.55-33.963-14.606-50.419-5.239l-32.034 18.238-45.607-114.921c-7.334-18.482-7.196-38.783.389-57.164s21.804-32.872 40.038-40.803c38.21-16.62 83.068.833 100.001 38.902l5.845 13.141c1.349 3.033 4.532 4.819 7.823 4.389l14.262-1.861c20.472-2.67 40.699 2.898 56.955 15.686 3.254 2.56 7.971 1.998 10.531-1.258 2.562-3.255 1.998-7.971-1.258-10.532-19.453-15.302-43.665-21.964-68.17-18.77l-8.713 1.137-3.57-8.027c-9.841-22.125-27.689-39.146-50.257-47.925-18.844-7.33-39.139-8.178-58.253-2.644-4.571-3.661-9.473-6.966-14.641-9.796-23.412-12.818-50.429-15.81-76.078-8.425-25.648 7.385-46.938 24.287-59.948 47.592l-5.063 9.07-10.137-2.271c-37.113-8.318-75.236 4.742-99.49 34.076-2.64 3.192-2.191 7.92 1.001 10.56 1.398 1.156 3.092 1.72 4.775 1.72 2.158 0 4.301-.927 5.784-2.721 20.638-24.962 53.071-36.071 84.65-28.998l15.598 3.495c3.229.727 6.569-.763 8.188-3.663l7.791-13.957c22.793-40.831 74.706-55.781 115.725-33.321 1.819.996 3.587 2.078 5.327 3.2-19.252 9.881-34.26 26.115-42.582 46.282-9.078 22-9.243 46.298-.464 68.419l31.111 78.393-13.102 25.892c-6.571 1.184-12.402 4.525-16.719 9.272l-39.357-22.407c-16.455-9.368-36.244-7.311-50.419 5.239-4.55 4.028-8.091 8.763-10.568 13.911l-31.187-8.56c-4.002-1.1-8.121 1.254-9.218 5.248s1.253 8.121 5.247 9.217l31.139 8.547c-.654 6.957.392 14.153 3.275 21.049l1.77 4.231c.691 1.652.691 3.547-.001 5.201l-1.768 4.229c-7.305 17.467-2.865 36.862 11.311 49.412 7.024 6.219 15.427 9.851 24.12 10.803v38.25c0 4.79 2.594 9.223 6.769 11.571 2.019 1.135 4.263 1.701 6.504 1.701 2.394 0 4.785-.645 6.897-1.929l10.915-6.636 10.914 6.636c4.09 2.488 9.227 2.575 13.401.229 4.175-2.348 6.769-6.781 6.769-11.571v-64.236l3.487-1.985c4.589 5.046 10.887 8.505 17.968 9.471v57.582c0 12.406-3.175 24.7-9.181 35.555-7.232 13.073-11.055 27.878-11.055 42.817v22.359c0 4.142 3.357 7.5 7.5 7.5s7.5-3.358 7.5-7.5v-22.358c0-12.406 3.175-24.701 9.181-35.556 7.232-13.073 11.055-27.878 11.055-42.817v-57.582c7.081-.966 13.379-4.425 17.968-9.471l3.487 1.985v64.236c0 4.79 2.594 9.223 6.769 11.571 2.02 1.135 4.263 1.701 6.504 1.701 2.394 0 4.785-.645 6.897-1.929l10.914-6.636 10.915 6.636c4.089 2.488 9.227 2.575 13.401.229 4.175-2.348 6.769-6.781 6.769-11.571v-38.25c8.692-.953 17.096-4.585 24.12-10.803 14.176-12.55 18.615-31.945 11.312-49.411l-1.77-4.233c-.691-1.651-.691-3.546.001-5.2l1.768-4.229c2.69-6.432 3.782-13.125 3.387-19.643l51.611-9.244c23.313-4.176 43.813-17.032 57.724-36.2 13.909-19.169 19.775-42.645 16.516-66.109zm-240.353 91.726c-2.304-1.018-4.757-1.755-7.321-2.16l3.623-7.159zm-59.397 148.526-9.189-5.587c-4.252-2.586-9.537-2.584-13.791 0l-9.188 5.587v-36.216c3.864-.964 7.664-2.46 11.299-4.529l20.87-11.882v52.627zm-28.292-53.78c-13.093 7.454-25.659 3.113-33.055-3.435-7.396-6.547-13.227-18.496-7.414-32.395l1.768-4.228c2.23-5.331 2.23-11.446.001-16.776l-1.77-4.23c-5.812-13.898.02-25.847 7.415-32.394 7.396-6.548 19.964-10.889 33.055-3.435l39.81 22.665c-.498 2.155-.771 4.397-.771 6.701v38.162c0 2.305.272 4.546.771 6.701zm90.456-29.366c0 8.131-6.615 14.746-14.746 14.746h-6.924c-8.131 0-14.746-6.615-14.746-14.746v-38.162c0-8.131 6.615-14.746 14.746-14.746h6.924c8.131 0 14.746 6.615 14.746 14.746zm48.726 77.559c-4.252-2.586-9.537-2.584-13.791 0l-9.188 5.587v-52.626l20.87 11.882c3.635 2.07 7.435 3.565 11.299 4.529v36.215zm38.367-51.628c-7.396 6.547-19.965 10.887-33.055 3.435l-39.81-22.665c.498-2.155.771-4.397.771-6.701v-38.162c0-2.305-.272-4.546-.771-6.701l39.81-22.665c13.092-7.454 25.659-3.113 33.055 3.435 7.396 6.547 13.227 18.496 7.414 32.395l-1.768 4.229c-2.23 5.332-2.23 11.447-.001 16.775l1.77 4.231c5.812 13.899-.019 25.847-7.415 32.394z"/><path d="m68.616 237.317c-18.797-7.53-34.359-21.595-43.82-39.604-9.531-18.143-12.22-39.137-7.571-59.11l.139-.595c.662-2.846 1.476-5.682 2.417-8.431 1.343-3.918-.745-8.184-4.664-9.526-3.92-1.341-8.183.745-9.525 4.665-1.105 3.226-2.06 6.554-2.836 9.885l-.139.596c-5.466 23.484-2.305 48.164 8.9 69.493 11.119 21.164 29.416 37.696 51.521 46.552.915.366 1.858.54 2.787.54 2.975 0 5.79-1.782 6.964-4.713 1.541-3.846-.328-8.212-4.173-9.752z"/></g></g></svg>