<svg id="Capa_1" enable-background="new 0 0 511.97 511.97" height="512" viewBox="0 0 511.97 511.97" width="512" xmlns="http://www.w3.org/2000/svg"><g><g><circle cx="139.099" cy="394.939" fill="#fcf0b6" r="47.278"/><circle cx="374.82" cy="394.939" fill="#fcf0b6" r="47.278"/><g><g id="XMLID_249_"><g><path d="m231.238 399.73 53.393-67.575c38.117-48.244 29.912-118.248-18.332-156.365-27.777-21.949-62.766-28.532-94.732-20.961-23.548 5.578-45.453 18.833-61.621 39.301l-53.393 67.575-6.846 29.396 164.472 117.974z" fill="#fcf0b6"/></g></g><path d="m77.251 295.953 13.902-1.659 53.393-67.575c16.168-20.467 38.073-33.723 61.621-39.301 27.626-6.543 57.507-2.505 83.042 12.878-6.196-9.057-13.846-17.344-22.91-24.506-27.777-21.949-62.766-28.532-94.732-20.961-23.548 5.578-45.453 18.833-61.621 39.301l-53.393 67.575-6.846 29.396 13.047 9.358c4.479-2.346 9.381-3.896 14.497-4.506z" fill="#fbe88c"/><path d="m217.706 452.5c-1.336 1.693-3.796 1.978-5.49.643l-203.232-160.583c-1.693-1.336-1.976-3.787-.64-5.48l6.387-8.09c6.87-8.698 16.916-14.314 27.92-15.626l13.902-1.659 174.685 138.025 1.608 13.904c1.263 11.016-1.882 22.078-8.752 30.776z" fill="#fbe88c"/><path d="m49.33 311.579c6.87-8.698 16.916-14.314 27.92-15.626l9.812-1.171c2.619-.313 5.008-1.65 6.644-3.72l-37.153-29.356-13.902 1.659c-11.004 1.311-21.05 6.928-27.92 15.626l-6.387 8.09c-1.336 1.693-1.053 4.144.64 5.48l34.093 26.938z" fill="#fbe372"/></g><g><g id="XMLID_247_"><g><path d="m455.395 264.693-53.45-67.53c-38.16-48.21-108.17-56.36-156.38-18.2-27.76 21.97-42.23 54.5-42.23 87.35 0 24.2 7.85 48.57 24.04 69.02l53.45 67.53 27.027 13.437 152.705-132.853z" fill="#fcf0b6"/></g></g></g><path d="m318.92 390.616 1.59-13.91-53.45-67.53c-16.19-20.45-24.04-44.82-24.04-69.02 0-28.391 10.817-56.536 31.671-77.838-10.241 3.942-20.069 9.476-29.126 16.645-27.76 21.97-42.23 54.5-42.23 87.35 0 24.2 7.85 48.57 24.04 69.02l53.45 67.53 27.027 13.437 12.113-10.539c-1.251-4.899-1.63-10.027-1.045-15.145z" fill="#fbe88c"/><path d="m503.625 290.023c1.34 1.69 1.05 4.15-.64 5.49l-203.1 160.75c-1.69 1.34-4.14 1.05-5.48-.64l-6.4-8.08c-6.88-8.69-10.03-19.76-8.77-30.77l1.59-13.91 174.57-138.17 13.9 1.64c11.01 1.31 21.05 6.92 27.93 15.61z" fill="#fbe88c"/><path d="m327.69 421.386c-6.88-8.69-10.03-19.76-8.77-30.77l1.122-9.817c.3-2.621-.451-5.254-2.089-7.322l-37.129 29.387-1.59 13.91c-1.26 11.01 1.89 22.08 8.77 30.77l6.4 8.08c1.34 1.69 3.79 1.98 5.48.64l34.071-26.967z" fill="#fbe372"/><path d="m246.4 148.096-72.667 39.133c-33.556 18.767-73.398-11.354-64.491-48.756l3.053-12.819c.272-1.141.272-2.331 0-3.472l-3.053-12.819c-8.907-37.402 30.935-67.523 64.491-48.756l55.962 31.298 26.29 14.537 8.604 30.095z" fill="#f5c3b9"/><path d="m144.369 133.243 3.053-12.819c.272-1.141.272-2.331 0-3.472l-3.053-12.819c-4.804-20.172 4.59-38.223 19.513-47.631-30.943-8.76-62.686 19.08-54.64 52.863l3.053 12.819c.272 1.141.272 2.331 0 3.472l-3.053 12.819c-8.907 37.402 30.935 67.523 64.491 48.755l2.005-1.08c-21.334-5.938-37.353-27.779-31.369-52.907z" fill="#f3b5aa"/><path d="m266.265 154.923 71.971 32.307c33.556 18.767 73.398-11.354 64.491-48.756l-3.053-12.819c-.272-1.141-.272-2.331 0-3.472l3.053-12.819c8.907-37.402-30.935-67.523-64.491-48.756l-55.962 31.298-39.254 18.961v32.663z" fill="#f5c3b9"/><path d="m255.985 171.936c-16.347 0-29.6-13.252-29.6-29.599v-36.836c0-16.347 13.252-29.599 29.599-29.599 16.347 0 29.599 13.252 29.599 29.599v36.836c.001 16.347-13.251 29.599-29.598 29.599z" fill="#f3b5aa"/></g><path d="m509.506 285.37-6.396-8.081c-8.168-10.32-19.864-16.854-32.933-18.401l-10.827-1.281-51.528-65.103c-2.777-3.508-5.771-6.866-8.913-10.034 10.838-12.395 15.074-29.106 11.114-45.733l-3.053-12.817 3.053-12.819c4.717-19.807-2.28-39.93-18.261-52.517-16.01-12.61-37.18-14.739-55.249-5.555-3.692 1.877-5.165 6.392-3.288 10.084s6.392 5.164 10.084 3.288c12.797-6.505 27.806-4.984 39.17 3.966 11.507 9.063 16.348 22.992 12.95 37.258l-3.053 12.818c-.542 2.273-.542 4.676 0 6.948l3.053 12.82c3.421 14.363-1.771 28.816-13.548 37.721-11.778 8.904-27.102 9.958-39.985 2.751l-50.261-28.11c.936-3.254 1.448-6.686 1.448-10.238v-36.835c0-3.551-.512-6.984-1.448-10.238l23.478-13.131c3.615-2.022 4.907-6.592 2.885-10.207-2.021-3.615-6.591-4.907-10.207-2.885l-23.138 12.941c-6.81-8.286-17.132-13.58-28.669-13.58s-21.859 5.295-28.669 13.58l-49.921-27.919c-18.162-10.156-39.754-8.67-56.354 3.877-16.599 12.549-23.915 32.919-19.094 53.161l3.054 12.819-3.053 12.819c-3.959 16.625.274 33.332 11.106 45.726-3.143 3.17-6.128 6.534-8.905 10.042l-51.528 65.102-10.827 1.281c-13.069 1.547-24.765 8.082-32.933 18.401l-6.396 8.081c-1.891 2.389-2.738 5.371-2.385 8.397.352 3.026 1.862 5.733 4.25 7.623l27.56 21.814c1.378 1.09 3.02 1.62 4.65 1.62 2.213 0 4.405-.976 5.886-2.846 2.571-3.248 2.021-7.965-1.226-10.536l-24.742-19.582 4.164-5.261c5.688-7.187 13.833-11.738 22.934-12.814l10.81-1.279 114.239 90.42c1.378 1.09 3.02 1.62 4.65 1.62 2.213 0 4.405-.976 5.886-2.846 2.571-3.248 2.021-7.965-1.226-10.536l-110.801-87.699 48.796-61.651c2.653-3.352 5.529-6.54 8.556-9.531 8.471 5.434 18.009 8.188 27.62 8.187 8.621 0 17.3-2.215 25.309-6.694l49.922-27.92c3.079 3.747 6.878 6.879 11.181 9.189-49.218 41.07-57.022 114.386-17.008 164.941l24.93 31.497-16.498 20.844-27.77-21.98c-3.248-2.569-7.963-2.021-10.536 1.226-2.571 3.248-2.021 7.965 1.226 10.536l31.209 24.702 1.237 10.814c1.042 9.106-1.517 18.079-7.205 25.265l-4.164 5.262-147.658-116.872c-3.248-2.57-7.964-2.021-10.536 1.226-2.571 3.248-2.021 7.965 1.226 10.536l33.967 26.885c-5.313 9.246-7.526 19.907-6.271 30.694 1.548 13.305 8.186 25.211 18.689 33.524l4.11 3.253c8.947 7.081 19.785 10.834 31.024 10.833 1.956 0 3.924-.114 5.896-.343 10.788-1.255 20.655-5.858 28.434-13.152l34.628 27.408c2.09 1.654 4.586 2.456 7.065 2.456 3.369 0 6.707-1.482 8.955-4.322l6.396-8.081c8.167-10.319 11.842-23.203 10.346-36.279l-1.239-10.832 17.034-21.521 17.034 21.521-1.24 10.832c-1.495 13.076 2.179 25.96 10.347 36.278l6.396 8.081c2.248 2.84 5.585 4.322 8.954 4.322 2.479 0 4.976-.803 7.066-2.457l34.627-27.408c7.779 7.294 17.646 11.897 28.434 13.152 1.972.229 3.939.343 5.896.343 11.238 0 22.078-3.753 31.023-10.833l4.111-3.253c10.503-8.313 17.14-20.219 18.688-33.524 1.256-10.788-.957-21.448-6.271-30.694l23.982-18.982c3.248-2.571 3.797-7.288 1.226-10.536s-7.289-3.797-10.536-1.226l-137.67 108.971-4.164-5.262c-5.688-7.186-8.247-16.158-7.206-25.264l1.238-10.815 31.209-24.702c3.248-2.571 3.797-7.288 1.226-10.536s-7.288-3.797-10.536-1.226l-27.77 21.98-48.797-61.65c-35.527-44.886-27.913-110.308 16.973-145.835 2.432-1.926 4.974-3.753 7.559-5.451 10.807-.519 20.416-5.682 26.87-13.534l49.922 27.92c8.01 4.479 16.687 6.694 25.309 6.694 9.609 0 19.148-2.754 27.619-8.187 3.025 2.988 5.904 6.179 8.557 9.53l48.796 61.651-110.801 87.699c-3.248 2.571-3.797 7.288-1.226 10.536 1.48 1.87 3.672 2.846 5.886 2.846 1.63 0 3.272-.529 4.65-1.62l114.239-90.42 10.81 1.279c9.101 1.077 17.246 5.628 22.934 12.814l4.164 5.261-34.714 27.477c-3.248 2.571-3.797 7.288-1.226 10.536 1.48 1.87 3.672 2.846 5.886 2.846 1.63 0 3.272-.529 4.65-1.62l37.531-29.707c2.39-1.891 3.9-4.599 4.252-7.625.353-3.026-.494-6.007-2.385-8.397zm-366.873 147.62c-9.324 1.086-18.515-1.526-25.877-7.353l-4.11-3.253c-13.178-10.43-16.859-28.469-9.763-42.987l57.959 45.875c-5.156 4.24-11.42 6.928-18.209 7.718zm256.692-10.606-4.111 3.253c-7.362 5.827-16.552 8.441-25.876 7.353-6.789-.79-13.053-3.478-18.209-7.718l57.959-45.875c7.095 14.518 3.414 32.557-9.763 42.987zm-229.252-241.7c-12.888 7.207-28.208 6.152-39.986-2.751-11.778-8.904-16.969-23.358-13.548-37.721l3.053-12.818c.542-2.273.542-4.676 0-6.948l-3.053-12.82c-3.421-14.363 1.771-28.816 13.548-37.721s27.099-9.958 39.986-2.751l50.261 28.109c-.936 3.255-1.448 6.687-1.448 10.238v36.835c0 3.551.512 6.984 1.448 10.238zm85.912-16.248c-12.186 0-22.1-9.914-22.1-22.1v-36.835c0-12.186 9.914-22.1 22.1-22.1s22.1 9.914 22.1 22.1v36.835c0 12.186-9.915 22.1-22.1 22.1z"/></g></svg>